# xmcd
#
# Track frame offsets: 
#        150
#        13067
#        25023
#        39250
#        53573
#        66601
#        80065
#        91855
#        105061
#        117643
#        128479
#        141763
#        152317
#        162627
#        175014
#        187937
#        198931
#        211351
#        223311
#        236623
#
# Disc length: 3322 seconds
#
# Revision: 0
# Processed by: cddbd v1.5.2PL0 Copyright (c) Steve Scherf et al.
# Submitted via: ExactAudioCopy v1.0b3
#
DISCID=090cf814
DTITLE=Various Artist - Western Swing - The Absolute Essential 3CD Collection
DYEAR=2012
DGENRE=Swing
TTITLE0=Bob Wills and His Texas Playboys - Faded Love
TTITLE1=Light Crust Doughboys - Let's Make Believe We're Sweethearts
TTITLE2=Cliff Bruner and His Boys - Kelly Swing
TTITLE3=Leon McAuliffe - Take It Away Leon
TTITLE4=Cliff Bruner and His Boys - Truck Driver's Blues
TTITLE5=Milton Brown and His Musical Brownies - Who's Sorry Now
TTITLE6=Bob Wills and His Texas Playboys - Texas Playboy Rag
TTITLE7=Spade Cooley - A Pair Of Broken Hearts
TTITLE8=Al Dexter and His Troopers - Pistol Packin' Mama
TTITLE9=Sons Of The West - Panhandle Rag
TTITLE10=Tune Wranglers - El Rancho Grande
TTITLE11=Light Crust Doughboys - Just Once Too Often
TTITLE12=Bob Wills and His Texas Playboys - Bubbles In My Beer
TTITLE13=Leon McAuliffe - This Side Of Town
TTITLE14=Milton Brown - Fan It
TTITLE15=Tommy Duncan - Nancy Jane
TTITLE16=Bob Wills and His Texas Playboys - Brain Cloudy Blues
TTITLE17=Johnny Tyler - It Ain't Far To The Bar
TTITLE18=Spade Cooley - You Can't Break My Heart
TTITLE19=Roy Newman - Mama Don't Like No Music
EXTD=
EXTT0=
EXTT1=
EXTT2=
EXTT3=
EXTT4=
EXTT5=
EXTT6=
EXTT7=
EXTT8=
EXTT9=
EXTT10=
EXTT11=
EXTT12=
EXTT13=
EXTT14=
EXTT15=
EXTT16=
EXTT17=
EXTT18=
EXTT19=
PLAYORDER=
